HIERARCHY
ROOT Pelvis
{
	OFFSET -0.217368 -24.078917 2.858379
	CHANNELS 6 Xposition Yposition Zposition Zrotation Yrotation Xrotation 
	JOINT Left_hip
	{
		OFFSET 5.858135 -8.228005 -1.766408
		CHANNELS 3 Zrotation Yrotation Xrotation
		JOINT Left_knee
		{
			OFFSET 4.345143 -38.646942 0.803700
			CHANNELS 3 Zrotation Yrotation Xrotation
			JOINT Left_ankle
			{
				OFFSET -1.479033 -42.687447 -3.742800
				CHANNELS 3 Zrotation Yrotation Xrotation
				JOINT Left_foot
				{
					OFFSET 4.105436 -6.028605 12.204244
					CHANNELS 3 Zrotation Yrotation Xrotation
					End Site
					{
						OFFSET 0.000000 0.000000 0.000000
					}
				}
			}
		}
	}
	JOINT Right_hip
	{
		OFFSET -6.030973 -9.051328 -1.354253
		CHANNELS 3 Zrotation Yrotation Xrotation
		JOINT Right_knee
		{
			OFFSET -4.325663 -38.368790 -0.484304
			CHANNELS 3 Zrotation Yrotation Xrotation
			JOINT Right_ankle
			{
				OFFSET 1.905555 -42.004566 -3.456167
				CHANNELS 3 Zrotation Yrotation Xrotation
				JOINT Right_foot
				{
					OFFSET -3.483987 -6.210554 13.032330
					CHANNELS 3 Zrotation Yrotation Xrotation
					End Site
					{
						OFFSET 0.000000 0.000000 0.000000
					}
				}
			}
		}
	}
	JOINT Spine1
	{
		OFFSET 0.443945 12.440353 -3.838522
		CHANNELS 3 Zrotation Yrotation Xrotation
		JOINT Spine2
		{
			OFFSET 0.448844 13.795640 2.682033
			CHANNELS 3 Zrotation Yrotation Xrotation
			JOINT Spine3
			{
				OFFSET -0.226460 5.603239 0.285504
				CHANNELS 3 Zrotation Yrotation Xrotation
				JOINT Neck
				{
					OFFSET -1.339018 21.163553 -3.346758
					CHANNELS 3 Zrotation Yrotation Xrotation
					JOINT Head
					{
						OFFSET 1.011321 8.893734 5.040987
						CHANNELS 3 Zrotation Yrotation Xrotation
						End Site
						{
							OFFSET 0.000000 0.000000 0.000000
						}
					}
				}
				JOINT Left_collar
				{
					OFFSET 7.170247 11.399971 -1.889817
					CHANNELS 3 Zrotation Yrotation Xrotation
					JOINT Left_shoulder
					{
						OFFSET 12.292140 4.520507 -1.904600
						CHANNELS 3 Zrotation Yrotation Xrotation
						JOINT Left_elbow
						{
							OFFSET 25.533188 -1.564902 -2.294648
							CHANNELS 3 Zrotation Yrotation Xrotation
							JOINT Left_wrist
							{
								OFFSET 26.570929 1.269810 -0.737473
								CHANNELS 3 Zrotation Yrotation Xrotation
								JOINT Left_palm
								{
									OFFSET 8.669054 -1.063602 -1.559429
									CHANNELS 3 Zrotation Yrotation Xrotation
									End Site
									{
										OFFSET 0.000000 0.000000 0.000000
									}
								}
							}
						}
					}
				}
				JOINT Right_collar
				{
					OFFSET -8.295364 11.247234 -2.370738
					CHANNELS 3 Zrotation Yrotation Xrotation
					JOINT Right_shoulder
					{
						OFFSET -11.322830 4.685326 -0.847207
						CHANNELS 3 Zrotation Yrotation Xrotation
						JOINT Right_elbow
						{
							OFFSET -26.012751 -1.436928 -3.126872
							CHANNELS 3 Zrotation Yrotation Xrotation
							JOINT Right_wrist
							{
								OFFSET -26.910841 0.679372 -0.602677
								CHANNELS 3 Zrotation Yrotation Xrotation
								JOINT Right_palm
								{
									OFFSET -8.875370 -0.865157 -1.010708
									CHANNELS 3 Zrotation Yrotation Xrotation
									End Site
									{
										OFFSET 0.000000 0.000000 0.000000
									}
								}
							}
						}
					}
				}
			}
		}
	}
}
MOTION
Frames: 5
Frame Time: 0.016667
-3.330628 68.899696 4.146156 -9.141219 -28.800400 10.795146 14.480555 -0.364438 5.437490 -8.452973 0.868049 -1.468257 31.439649 41.636902 30.759925 0.000000 0.000000 0.000000 6.465271 3.223838 -21.280890 -8.833780 1.768104 6.934712 25.473549 34.461012 22.369410 0.000000 0.000000 0.000000 3.650559 0.181677 -2.910402 8.136489 -2.939370 -8.741984 -5.361874 -34.624175 7.090960 -2.478095 1.547288 8.494195 0.000000 0.000000 0.000000 5.868532 0.903076 0.312453 -1.641045 -15.488363 -0.729011 63.053479 -16.629862 -9.115130 0.000000 0.000000 0.000000 0.000000 0.000000 0.000000 -7.208056 -21.312653 -5.077191 3.446996 12.992761 -0.586989 -66.466686 20.761213 -11.248750 0.000000 0.000000 0.000000 0.000000 0.000000 0.000000 
-3.341285 68.791962 4.063617 -8.795389 -29.279840 11.053479 13.799237 -0.323579 5.426020 -8.225848 0.847562 -1.428866 31.821301 41.915072 30.973200 0.000000 0.000000 0.000000 6.255406 3.319165 -22.098185 -9.145319 1.831379 7.018599 26.215055 35.077018 23.004732 0.000000 0.000000 0.000000 3.749447 0.160793 -2.603011 7.922365 -2.849149 -8.799950 -5.946044 -34.552031 7.259746 -2.585572 1.639066 8.626803 0.000000 0.000000 0.000000 5.261646 0.107227 0.476565 -0.533776 -15.719574 -0.773965 61.966959 -14.454852 -7.695809 0.000000 0.000000 0.000000 0.000000 0.000000 0.000000 -6.693339 -20.738439 -5.067068 2.683565 13.010424 -0.610470 -67.217872 20.052955 -10.961642 0.000000 0.000000 0.000000 0.000000 0.000000 0.000000 
-3.327899 68.764290 3.983980 -8.793265 -29.379058 11.098808 13.793046 -0.344328 6.145797 -7.917128 0.778235 -2.531850 31.082891 41.545100 30.054214 0.000000 0.000000 0.000000 6.460394 3.349350 -22.062413 -9.277234 1.836654 6.879527 25.568502 34.411244 22.573251 0.000000 0.000000 0.000000 3.738306 0.124829 -2.115395 8.213555 -2.996858 -8.493266 -6.215161 -34.251140 7.278778 -2.743479 1.815945 7.934670 0.000000 0.000000 0.000000 4.883175 -0.527772 0.623625 -0.755118 -15.562017 -0.759608 63.728272 -13.290102 -7.302964 0.000000 0.000000 0.000000 0.000000 0.000000 0.000000 -7.063778 -20.164846 -4.806487 3.494131 12.491436 -0.574139 -69.605365 21.301768 -12.314805 0.000000 0.000000 0.000000 0.000000 0.000000 0.000000 
-3.304447 68.670906 3.902988 -7.379980 -28.910636 10.494682 12.493671 -0.260794 6.244786 -7.038948 0.683113 -3.189378 29.641636 40.719430 28.429804 0.000000 0.000000 0.000000 5.420381 3.226113 -22.447905 -8.856297 1.823222 7.360842 23.339370 32.839068 20.310703 0.000000 0.000000 0.000000 3.245221 0.122806 -2.160273 8.544503 -3.137302 -8.408035 -6.863549 -33.461667 7.447033 -3.518372 2.528492 7.600020 0.000000 0.000000 0.000000 4.244529 -0.653390 0.602938 -0.909599 -16.482635 -0.794836 64.958735 -13.455133 -7.583807 0.000000 0.000000 0.000000 0.000000 0.000000 0.000000 -6.452299 -19.847530 -4.888074 2.623639 12.738799 -0.603968 -72.840526 21.581278 -13.287108 0.000000 0.000000 0.000000 0.000000 0.000000 0.000000 
-3.235949 68.653656 3.851576 -6.438271 -27.540387 10.397299 11.788153 -0.205702 5.550198 -6.686343 0.638009 -3.848654 27.795585 39.703126 25.921189 0.000000 0.000000 0.000000 4.620926 3.075685 -22.392484 -8.661300 1.764396 7.150646 21.602979 31.543871 18.507153 0.000000 0.000000 0.000000 3.137056 0.127842 -2.251296 8.821615 -3.219794 -8.644257 -7.416410 -31.890684 7.874992 -3.355633 2.392725 7.307428 0.000000 0.000000 0.000000 3.738597 0.323267 0.265003 -1.606566 -18.636940 -0.847813 66.480054 -14.943992 -8.727106 0.000000 0.000000 0.000000 0.000000 0.000000 0.000000 -5.671764 -19.280667 -4.941745 2.548930 12.764209 -0.606838 -74.372423 22.088613 -14.040825 0.000000 0.000000 0.000000 0.000000 0.000000 0.000000 
